<svg width="140.000000" height="35.933350" viewBox="0 0 140 35.9333" fill="none" xmlns="http://www.w3.org/2000/svg" xmlns:xlink="http://www.w3.org/1999/xlink">
	<desc>
			Created with Pixso.
	</desc>
	<defs>
		<clipPath id="clip216_1039">
			<rect id="ripple_logo.svg" width="140.000000" height="35.933334" fill="white" fill-opacity="0"/>
		</clipPath>
	</defs>
	<rect id="ripple_logo.svg" width="140.000000" height="35.933334" fill="#FFFFFF" fill-opacity="0"/>
	<g clip-path="url(#clip216_1039)">
		<path id="Vector" d="M26.16 21.9C25.05 21.21 23.77 21.04 22.49 21.04C21.46 21.04 19.84 20.36 19.84 18.39C19.84 17.71 20.09 17.02 20.61 16.51C21.12 15.99 21.8 15.74 22.49 15.74C23.77 15.65 25.05 15.48 26.16 14.88C27.19 14.28 28.05 13.43 28.64 12.4C29.24 11.37 29.5 10.26 29.5 9.06C29.5 7.87 29.16 6.75 28.64 5.73C28.05 4.7 27.19 3.85 26.16 3.25C25.14 2.65 24.03 2.39 22.83 2.39C21.63 2.39 20.52 2.73 19.49 3.25C18.47 3.85 17.61 4.7 17.01 5.73C16.42 6.75 16.16 7.87 16.07 9.06C16.07 10.35 16.5 11.55 17.1 12.66C17.61 13.6 17.87 15.31 16.16 16.34C15.56 16.68 14.79 16.76 14.11 16.59C13.42 16.42 12.82 15.99 12.48 15.4C11.8 14.37 11.03 13.34 9.92 12.66C8.89 12.06 7.78 11.8 6.58 11.8C5.38 11.8 4.27 12.14 3.25 12.66C2.22 13.26 1.36 14.11 0.76 15.14C0.17 16.17 -0.09 17.28 -0.09 18.48C-0.09 19.67 0.25 20.79 0.76 21.81C1.36 22.84 2.22 23.69 3.25 24.29C4.27 24.89 5.38 25.15 6.58 25.15C7.78 25.15 8.89 24.81 9.92 24.29C11.03 23.61 11.88 22.67 12.48 21.56C12.99 20.7 14.36 19.59 16.07 20.53C16.67 20.87 17.1 21.47 17.27 22.15C17.44 22.84 17.36 23.52 17.01 24.21C16.42 25.32 15.99 26.52 15.99 27.8C15.99 29 16.33 30.11 16.84 31.14C17.44 32.16 18.3 33.02 19.32 33.62C20.35 34.22 21.46 34.47 22.66 34.47C23.86 34.47 24.97 34.13 25.99 33.62C27.02 33.02 27.88 32.16 28.47 31.14C29.07 30.11 29.33 29 29.33 27.8C29.33 26.6 28.99 25.49 28.47 24.46C28.05 23.35 27.19 22.5 26.16 21.9Z" fill="#2F1C48" fill-opacity="1.000000" fill-rule="nonzero"/>
		<path id="Vector" d="M38.74 8.21L43.35 8.21L43.35 10.43C43.95 9.66 44.72 9.06 45.66 8.64C46.52 8.21 47.55 8.04 48.49 8.04C49.17 8.04 49.85 8.12 50.45 8.29L50.45 13.6C50.45 13.6 49.77 13.34 48.23 13.34C45.58 13.34 43.78 15.14 43.78 17.79L43.78 28.66L38.65 28.66L38.65 8.21L38.74 8.21ZM63.79 8.21L68.41 8.21L68.41 10.18C70.04 8.81 72.09 7.95 74.14 7.95C79.27 7.95 83.72 12.4 83.72 18.39C83.72 24.38 79.27 28.83 74.14 28.83C72.18 28.83 70.29 28.14 68.84 26.86L68.84 35.93L63.71 35.93L63.71 8.21L63.79 8.21ZM78.59 18.39C78.59 15.05 76.37 12.83 73.54 12.83C70.64 12.83 68.41 15.05 68.41 18.39C68.41 21.73 70.64 23.95 73.54 23.95C76.45 23.95 78.59 21.73 78.59 18.39ZM87.48 8.21L92.1 8.21L92.1 10.18C93.73 8.81 95.78 7.95 97.83 7.95C102.96 7.95 107.41 12.4 107.41 18.39C107.41 24.38 102.96 28.83 97.83 28.83C95.87 28.83 93.98 28.14 92.53 26.86L92.53 35.93L87.4 35.93L87.4 8.21L87.48 8.21ZM102.28 18.39C102.28 15.05 100.06 12.83 97.23 12.83C94.33 12.83 92.1 15.05 92.1 18.39C92.1 21.73 94.33 23.95 97.23 23.95C100.14 23.95 102.28 21.73 102.28 18.39ZM111.17 0.68L116.31 0.68L116.31 28.57L111.17 28.57L111.17 0.68ZM120.07 18.39C120.07 12.66 124.69 7.95 130.25 7.95C135.55 7.95 140 12.14 140 18.39C140 19.07 139.91 19.76 139.74 20.36L125.54 20.36C125.97 22.33 127.6 23.87 130.16 23.87C132.56 23.87 133.5 22.75 133.5 22.75L139.06 22.75C138.03 25.41 134.86 28.74 130.16 28.74C124.69 28.83 120.07 24.21 120.07 18.39ZM135.12 16.85C134.86 15.74 134.27 14.71 133.41 14.03C132.56 13.34 131.44 12.91 130.25 12.91C129.13 12.91 128.02 13.34 127.08 14.03C126.23 14.71 125.54 15.74 125.37 16.85L135.12 16.85ZM53.45 2.9C53.45 2.13 53.79 1.36 54.3 0.85C54.81 0.34 55.58 0 56.35 0C57.12 0 57.89 0.34 58.41 0.85C58.92 1.36 59.26 2.13 59.26 2.9C59.26 3.67 58.92 4.44 58.41 4.96C57.89 5.47 57.12 5.81 56.35 5.81C55.58 5.81 54.81 5.47 54.3 4.96C53.79 4.36 53.45 3.67 53.45 2.9ZM53.79 8.21L58.92 8.21L58.92 28.57L53.79 28.57L53.79 8.21Z" fill="#2F1C48" fill-opacity="1.000000" fill-rule="nonzero"/>
	</g>
</svg>
