<svg width="150.000000" height="45.039673" viewBox="0 0 150 45.0397" fill="none" xmlns="http://www.w3.org/2000/svg" xmlns:xlink="http://www.w3.org/1999/xlink">
	<desc>
			Created with Pixso.
	</desc>
	<defs>
		<clipPath id="clip216_1051">
			<rect id="spotify_logo.svg" width="150.000000" height="45.039688" fill="white" fill-opacity="0"/>
		</clipPath>
	</defs>
	<rect id="spotify_logo.svg" width="150.000000" height="45.039688" fill="#FFFFFF" fill-opacity="0"/>
	<g clip-path="url(#clip216_1051)">
		<path id="path14" d="M36.38 20C29.24 15.75 17.46 15.36 10.64 17.43C9.55 17.77 8.39 17.15 8.06 16.05C7.73 14.95 8.34 13.8 9.44 13.46C17.27 11.08 30.28 11.54 38.5 16.43C39.48 17.01 39.81 18.29 39.22 19.27C38.64 20.26 37.37 20.58 36.38 20ZM36.15 26.29C35.65 27.1 34.59 27.36 33.77 26.86C27.82 23.19 18.74 22.13 11.69 24.27C10.78 24.55 9.82 24.03 9.54 23.12C9.26 22.2 9.78 21.24 10.69 20.96C18.74 18.52 28.74 19.7 35.58 23.91C36.39 24.41 36.65 25.47 36.15 26.29ZM33.44 32.33C33.04 32.98 32.19 33.19 31.54 32.79C26.34 29.6 19.79 28.88 12.08 30.65C11.33 30.82 10.59 30.35 10.42 29.61C10.25 28.86 10.72 28.12 11.46 27.95C19.9 26.02 27.14 26.85 32.98 30.43C33.63 30.82 33.84 31.68 33.44 32.33ZM23.28 0.33C11.04 0.33 1.12 10.26 1.12 22.51C1.12 34.77 11.04 44.7 23.28 44.7C35.51 44.7 45.43 34.77 45.43 22.51C45.43 10.26 35.51 0.33 23.28 0.33Z" fill="#2F1C48" fill-opacity="1.000000" fill-rule="nonzero"/>
		<path id="path16" d="M61.4 20.81C57.58 19.9 56.89 19.26 56.89 17.91C56.89 16.64 58.09 15.78 59.87 15.78C61.6 15.78 63.31 16.43 65.1 17.77C65.15 17.81 65.22 17.83 65.29 17.82C65.36 17.81 65.42 17.77 65.46 17.71L67.32 15.08C67.4 14.97 67.38 14.82 67.28 14.74C65.14 13.02 62.74 12.19 59.93 12.19C55.8 12.19 52.91 14.67 52.91 18.22C52.91 22.03 55.4 23.38 59.7 24.42C63.36 25.26 63.98 25.97 63.98 27.23C63.98 28.63 62.73 29.5 60.72 29.5C58.49 29.5 56.67 28.75 54.63 26.99C54.58 26.94 54.51 26.92 54.44 26.93C54.38 26.93 54.32 26.96 54.27 27.01L52.18 29.51C52.09 29.61 52.1 29.77 52.2 29.86C54.57 31.98 57.49 33.09 60.64 33.09C65.09 33.09 67.96 30.66 67.96 26.89C67.96 23.71 66.06 21.95 61.4 20.81Z" fill="#2F1C48" fill-opacity="1.000000" fill-rule="nonzero"/>
		<path id="path18" d="M81.26 25.08C81.26 27.77 79.61 29.64 77.24 29.64C74.9 29.64 73.13 27.68 73.13 25.08C73.13 22.48 74.9 20.51 77.24 20.51C79.57 20.51 81.26 22.43 81.26 25.08ZM78.03 17.03C76.1 17.03 74.52 17.79 73.22 19.35L73.22 17.6C73.22 17.46 73.1 17.35 72.97 17.35L69.54 17.35C69.4 17.35 69.29 17.46 69.29 17.6L69.29 37.09C69.29 37.23 69.4 37.35 69.54 37.35L72.97 37.35C73.1 37.35 73.22 37.23 73.22 37.09L73.22 30.94C74.52 32.41 76.1 33.12 78.03 33.12C81.62 33.12 85.25 30.36 85.25 25.08C85.25 19.8 81.62 17.03 78.03 17.03Z" fill="#2F1C48" fill-opacity="1.000000" fill-rule="nonzero"/>
		<path id="path20" d="M94.55 29.67C92.09 29.67 90.24 27.7 90.24 25.08C90.24 22.45 92.03 20.54 94.49 20.54C96.96 20.54 98.83 22.52 98.83 25.14C98.83 27.77 97.03 29.67 94.55 29.67ZM94.55 17.03C89.93 17.03 86.32 20.59 86.32 25.14C86.32 29.63 89.91 33.15 94.49 33.15C99.13 33.15 102.75 29.61 102.75 25.08C102.75 20.57 99.15 17.03 94.55 17.03Z" fill="#2F1C48" fill-opacity="1.000000" fill-rule="nonzero"/>
		<path id="path22" d="M112.61 17.35L108.84 17.35L108.84 13.49C108.84 13.35 108.73 13.24 108.59 13.24L105.17 13.24C105.03 13.24 104.92 13.35 104.92 13.49L104.92 17.35L103.27 17.35C103.13 17.35 103.02 17.46 103.02 17.6L103.02 20.55C103.02 20.68 103.13 20.8 103.27 20.8L104.92 20.8L104.92 28.42C104.92 31.51 106.45 33.07 109.47 33.07C110.7 33.07 111.72 32.81 112.68 32.27C112.76 32.22 112.81 32.14 112.81 32.05L112.81 29.24C112.81 29.16 112.76 29.08 112.69 29.03C112.61 28.98 112.52 28.98 112.44 29.02C111.78 29.35 111.15 29.5 110.43 29.5C109.33 29.5 108.84 29.01 108.84 27.89L108.84 20.8L112.61 20.8C112.75 20.8 112.86 20.68 112.86 20.55L112.86 17.6C112.86 17.46 112.75 17.35 112.61 17.35Z" fill="#2F1C48" fill-opacity="1.000000" fill-rule="nonzero"/>
		<path id="path24" d="M125.75 17.36L125.75 16.89C125.75 15.49 126.28 14.87 127.48 14.87C128.19 14.87 128.77 15.01 129.41 15.23C129.49 15.25 129.57 15.24 129.63 15.19C129.7 15.15 129.74 15.07 129.74 14.99L129.74 12.1C129.74 11.99 129.67 11.89 129.56 11.86C128.88 11.66 128.01 11.45 126.71 11.45C123.55 11.45 121.88 13.23 121.88 16.61L121.88 17.33L120.23 17.33C120.09 17.33 119.98 17.44 119.98 17.58L119.98 20.55C119.98 20.68 120.09 20.8 120.23 20.8L121.88 20.8L121.88 32.56C121.88 32.7 121.99 32.81 122.13 32.81L125.55 32.81C125.69 32.81 125.8 32.7 125.8 32.56L125.8 20.8L129 20.8L133.9 32.56C133.35 33.79 132.8 34.04 132.05 34.04C131.45 34.04 130.81 33.86 130.16 33.5C130.1 33.47 130.03 33.46 129.96 33.48C129.9 33.51 129.84 33.55 129.81 33.62L128.65 36.17C128.6 36.29 128.64 36.43 128.76 36.49C129.97 37.15 131.07 37.43 132.42 37.43C134.95 37.43 136.35 36.25 137.58 33.08L143.52 17.7C143.55 17.63 143.54 17.54 143.5 17.47C143.45 17.4 143.37 17.36 143.29 17.36L139.72 17.36C139.62 17.36 139.52 17.43 139.49 17.53L135.83 27.98L131.83 17.52C131.8 17.43 131.7 17.36 131.6 17.36L125.75 17.36Z" fill="#2F1C48" fill-opacity="1.000000" fill-rule="nonzero"/>
		<path id="path26" d="M118.13 17.35L114.71 17.35C114.57 17.35 114.46 17.46 114.46 17.6L114.46 32.56C114.46 32.7 114.57 32.81 114.71 32.81L118.13 32.81C118.27 32.81 118.38 32.7 118.38 32.56L118.38 17.6C118.38 17.46 118.27 17.35 118.13 17.35Z" fill="#2F1C48" fill-opacity="1.000000" fill-rule="nonzero"/>
		<path id="path28" d="M116.44 10.53C115.08 10.53 113.98 11.63 113.98 12.99C113.98 14.35 115.08 15.45 116.44 15.45C117.79 15.45 118.89 14.35 118.89 12.99C118.89 11.63 117.79 10.53 116.44 10.53Z" fill="#2F1C48" fill-opacity="1.000000" fill-rule="nonzero"/>
		<path id="path30" d="M146.59 18.84L145.96 18.84L145.96 19.64L146.59 19.64C146.9 19.64 147.09 19.48 147.09 19.24C147.09 18.98 146.9 18.84 146.59 18.84ZM146.99 19.98L147.68 20.93L147.1 20.93L146.49 20.06L145.96 20.06L145.96 20.93L145.48 20.93L145.48 18.4L146.61 18.4C147.19 18.4 147.58 18.7 147.58 19.21C147.58 19.62 147.34 19.88 146.99 19.98ZM146.46 17.56C145.22 17.56 144.29 18.54 144.29 19.74C144.29 20.95 145.22 21.92 146.45 21.92C147.68 21.92 148.62 20.93 148.62 19.73C148.62 18.53 147.69 17.56 146.46 17.56ZM146.45 22.16C145.09 22.16 144.04 21.07 144.04 19.74C144.04 18.42 145.11 17.32 146.46 17.32C147.82 17.32 148.87 18.41 148.87 19.73C148.87 21.05 147.8 22.16 146.45 22.16Z" fill="#2F1C48" fill-opacity="1.000000" fill-rule="nonzero"/>
	</g>
</svg>
